<?xml version="1.0" standalone="no"?><!DOCTYPE svg PUBLIC "-//W3C//DTD SVG 1.1//EN" "http://www.w3.org/Graphics/SVG/1.1/DTD/svg11.dtd"><svg t="1524573376143" class="icon" style="" viewBox="0 0 1025 1024" version="1.1" xmlns="http://www.w3.org/2000/svg" p-id="13169" xmlns:xlink="http://www.w3.org/1999/xlink" width="128.125" height="128"><defs><style type="text/css"></style></defs><path d="M941.8 1024H82.2C36.8 1024 0 987.2 0 941.8V82.2C0 36.8 36.8 0 82.2 0h859.6c45.4 0 82.2 36.8 82.2 82.2v859.6c0 45.4-36.8 82.2-82.2 82.2z" fill="#EF9B6C" p-id="13170"></path><path d="M883.1 240.6c-24.1 1.2-46.2 16.6-55.8 38.7-10.8 24.7-5.5 49.9 8.9 68l-6.8 28.7c-14 58.8-66.5 100.2-126.9 100.2-68 0-124.6-52.3-130-120.1l-6.5-81.5c31.4-20.8 49.9-59.5 40.9-101.5-7.7-36.1-37-65.2-73.1-72.8-62.3-13.1-117.1 34.1-117.1 94.1 0 33.5 17.2 63 43.2 80.3l-6.5 81.5c-5.4 67.8-62 120.1-130 120.1-60.4 0-112.9-41.5-126.9-100.2l-6.8-28.7c14.5-18 19.7-43.3 8.9-68-9.6-22.1-31.7-37.5-55.8-38.7-44-2.2-76 36.2-68.9 76.9 3.9 22.5 18.8 40.2 38.2 48.8l58.4 428.8h685.1v-0.2L914 366.4c19.4-8.6 34.3-26.4 38.2-48.8 6.9-40.8-25.1-79.2-69.1-77zM512.9 706.2L408.7 602l104.2-104.2L617.1 602 512.9 706.2zM762.8 927.6H259c-50.1 0-90.6-40.6-90.6-90.6v-11h685.1v11c0 50-40.6 90.6-90.7 90.6z" fill="#142E3F" p-id="13171"></path></svg>