<?xml version="1.0" standalone="no"?><!DOCTYPE svg PUBLIC "-//W3C//DTD SVG 1.1//EN" "http://www.w3.org/Graphics/SVG/1.1/DTD/svg11.dtd"><svg t="1524551599983" class="icon" style="" viewBox="0 0 1024 1024" version="1.1" xmlns="http://www.w3.org/2000/svg" p-id="4826" xmlns:xlink="http://www.w3.org/1999/xlink" width="128" height="128"><defs><style type="text/css"></style></defs><path d="M512 1024C229.248 1024 0 794.752 0 512 0 229.205333 229.248 0 512 0s512 229.205333 512 512c0 282.752-229.248 512-512 512z m0-938.666667C276.352 85.333333 85.333333 276.352 85.333333 512s191.018667 426.666667 426.666667 426.666667 426.666667-191.018667 426.666667-426.666667S747.648 85.333333 512 85.333333z m256 640a42.666667 42.666667 0 0 1-42.666667-42.666666v-170.666667a42.666667 42.666667 0 0 1 85.333334 0v170.666667a42.666667 42.666667 0 0 1-42.666667 42.666666z m-170.666667 0a42.666667 42.666667 0 0 1-42.666666-42.666666V384a42.666667 42.666667 0 0 1 85.333333 0v298.666667a42.666667 42.666667 0 0 1-42.666667 42.666666z m-170.666666 0a42.666667 42.666667 0 0 1-42.666667-42.666666V298.666667a42.666667 42.666667 0 0 1 85.333333 0v384a42.666667 42.666667 0 0 1-42.666666 42.666666z m-170.666667 0a42.666667 42.666667 0 0 1-42.666667-42.666666v-170.666667a42.666667 42.666667 0 0 1 85.333334 0v170.666667a42.666667 42.666667 0 0 1-42.666667 42.666666z" p-id="4827"></path></svg>