<?xml version="1.0" standalone="no"?><!DOCTYPE svg PUBLIC "-//W3C//DTD SVG 1.1//EN" "http://www.w3.org/Graphics/SVG/1.1/DTD/svg11.dtd"><svg t="1524551800660" class="icon" style="" viewBox="0 0 1024 1024" version="1.1" xmlns="http://www.w3.org/2000/svg" p-id="5936" xmlns:xlink="http://www.w3.org/1999/xlink" width="128" height="128"><defs><style type="text/css"></style></defs><path d="M402.883 120.35H184.21a72.818 72.818 0 0 0-72.709 72.708V411.73a72.818 72.818 0 0 0 72.709 72.708h218.672a72.818 72.818 0 0 0 72.708-72.708V193.058a72.818 72.818 0 0 0-72.708-72.708M936.49 250.948L781.863 96.356a72.818 72.818 0 0 0-102.819 0l-21.408 21.409-133.22 133.183a72.199 72.199 0 0 0-21.227 51.264 72.199 72.199 0 0 0 21.226 51.555l21.409 21.408L657.636 487.06l21.408 21.408a72.709 72.709 0 0 0 102.819-0.036l133.22-133.257 21.408-21.372a72.745 72.745 0 0 0 0-102.818M402.883 557.256H184.21a72.818 72.818 0 0 0-72.709 72.709v218.672a72.818 72.818 0 0 0 72.709 72.708h218.672a72.818 72.818 0 0 0 72.708-72.708V629.965a72.818 72.818 0 0 0-72.708-72.709m436.906 0H621.117a72.818 72.818 0 0 0-72.708 72.709v218.672a72.818 72.818 0 0 0 72.708 72.708H839.79a72.818 72.818 0 0 0 72.709-72.708V629.965a72.818 72.818 0 0 0-72.709-72.709" p-id="5937"></path></svg>