<?xml version="1.0" standalone="no"?><!DOCTYPE svg PUBLIC "-//W3C//DTD SVG 1.1//EN" "http://www.w3.org/Graphics/SVG/1.1/DTD/svg11.dtd"><svg t="1530586305239" class="icon" style="" viewBox="0 0 1024 1024" version="1.1" xmlns="http://www.w3.org/2000/svg" p-id="1907" xmlns:xlink="http://www.w3.org/1999/xlink" width="128" height="128"><defs><style type="text/css"></style></defs><path d="M512 0C229.230405 0 0 229.230405 0 512s229.230405 512 512 512 512-229.230405 512-512S794.769595 0 512 0zM256 716.8c-14.138736 0-25.600639-11.460625-25.600639-25.599361s11.460625-25.599361 25.600639-25.599361c14.138736 0 25.599361 11.460625 25.599361 25.599361S270.138736 716.8 256 716.8zM256 537.599361c-14.138736 0-25.600639-11.460625-25.600639-25.599361s11.460625-25.599361 25.600639-25.599361c14.138736 0 25.599361 11.460625 25.599361 25.599361S270.138736 537.599361 256 537.599361zM256 358.4c-14.138736 0-25.600639-11.460625-25.600639-25.599361 0-14.138736 11.460625-25.600639 25.600639-25.600639 14.138736 0 25.599361 11.460625 25.599361 25.600639C281.599361 346.938096 270.138736 358.4 256 358.4zM793.599361 703.999041c0 7.068728-5.732231 12.79968-12.79968 12.79968L396.80032 716.798721c-7.071286 0-12.79968-5.732231-12.79968-12.79968l0-25.599361c0-7.071286 5.729673-12.79968 12.79968-12.79968l383.999361 0c7.068728 0 12.79968 5.729673 12.79968 12.79968L793.599361 703.999041zM793.599361 524.79968c0 7.071286-5.732231 12.79968-12.79968 12.79968L396.80032 537.599361c-7.071286 0-12.79968-5.729673-12.79968-12.79968l0-25.599361c0-7.068728 5.729673-12.79968 12.79968-12.79968l383.999361 0c7.068728 0 12.79968 5.732231 12.79968 12.79968L793.599361 524.79968zM793.599361 345.60032c0 7.068728-5.732231 12.79968-12.79968 12.79968L396.80032 358.4c-7.071286 0-12.79968-5.732231-12.79968-12.79968l0-25.599361c0-7.068728 5.729673-12.79968 12.79968-12.79968l383.999361 0c7.068728 0 12.79968 5.732231 12.79968 12.79968L793.599361 345.60032z" p-id="1908"></path></svg>