<?xml version="1.0" standalone="no"?><!DOCTYPE svg PUBLIC "-//W3C//DTD SVG 1.1//EN" "http://www.w3.org/Graphics/SVG/1.1/DTD/svg11.dtd"><svg t="1524553566319" class="icon" style="" viewBox="0 0 1024 1024" version="1.1" xmlns="http://www.w3.org/2000/svg" p-id="10030" xmlns:xlink="http://www.w3.org/1999/xlink" width="128" height="128"><defs><style type="text/css"></style></defs><path d="M951.239859 882.645598 556.716434 93.598748c-9.699919-19.398816-28.388561-29.098735-47.081295-29.098735-18.692734 0-37.381375 9.699919-47.081295 29.098735L68.031443 882.645598c-17.500583 35.000142 7.949043 76.179007 47.081295 76.179007l789.04685 0C943.289794 958.824605 968.740442 917.646763 951.239859 882.645598zM906.666688 907.73809c-0.864694 1.394766-1.853208 1.394766-2.508123 1.394766L115.112738 909.132856c-0.654916 0-1.64343 0-2.508123-1.394766-0.861624-1.397836-0.418532-2.28095-0.12689-2.866281L507.000126 115.821889c0.400113-0.800225 0.815575-1.629103 2.636037-1.629103 1.819438 0 2.234901 0.827855 2.636037 1.629103L906.794601 904.871809C907.08829 905.45714 907.528312 906.33923 906.666688 907.73809z" p-id="10031"></path><path d="M472.366328 710.433398l99.384521 0 0 99.384521-99.384521 0 0-99.384521Z" p-id="10032"></path><path d="M522.0591 660.741649 571.750849 412.279834 472.366328 412.279834Z" p-id="10033"></path></svg>