<?xml version="1.0" standalone="no"?><!DOCTYPE svg PUBLIC "-//W3C//DTD SVG 1.1//EN" "http://www.w3.org/Graphics/SVG/1.1/DTD/svg11.dtd"><svg t="1524553508280" class="icon" style="" viewBox="0 0 1024 1024" version="1.1" xmlns="http://www.w3.org/2000/svg" p-id="9293" xmlns:xlink="http://www.w3.org/1999/xlink" width="128" height="128"><defs><style type="text/css"></style></defs><path d="M424.44231111111105 712.5816888888888v-53.734399999999994H315.1473777777777v-44.80853333333334l115.84853333333334-169.59146666666666h42.99093333333334v169.40373333333332h33.152v44.98773333333334h-33.152v53.734399999999994h-49.544533333333334z m0-98.72213333333335V522.5955555555556l-61.380266666666664 91.264h61.380266666666664zM618.0721777777778 444.4472888888889c25.864533333333334 0 46.08853333333333 9.233066666666668 60.65493333333333 27.69066666666667 17.365333333333336 21.862399999999997 26.052266666666664 58.10346666666667 26.052266666666664 108.74026666666667 0 50.525866666666666-8.738133333333334 86.8352-26.231466666666666 108.93653333333333-14.446933333333334 18.218666666666664-34.6112 27.3152-60.47573333333333 27.3152-25.983999999999998 0-46.93333333333333-9.984-62.83946666666667-29.960533333333334s-23.859199999999998-55.59466666666666-23.859199999999998-106.83733333333333c0-50.278400000000005 8.738133333333334-86.45973333333333 26.222933333333334-108.56960000000001 14.446933333333334-18.21013333333333 34.6112-27.3152 60.47573333333333-27.3152z m0 42.4448c-6.1952 0-11.716266666666666 1.9712-16.571733333333334 5.9136-4.855466666666667 3.9509333333333334-8.627199999999998 11.025066666666667-11.2896 21.2224-3.524266666666666 13.235199999999999-5.282133333333333 35.52426666666667-5.282133333333333 66.85013333333333 0 31.334400000000002 1.5786666666666667 52.855466666666665 4.744533333333334 64.57173333333333 3.1488 11.7248 7.125333333333333 19.524266666666666 11.921066666666666 23.40693333333333a25.437866666666665 25.437866666666665 0 0 0 16.4864 5.828266666666667c6.203733333333333 0 11.7248-1.9626666666666668 16.580266666666667-5.9136 4.846933333333332-3.9424 8.618666666666666-11.016533333333333 11.2896-21.213866666666668 3.515733333333333-13.115733333333333 5.282133333333333-35.34506666666667 5.282133333333333-66.67093333333332 0-31.325866666666666-1.5872-52.84693333333333-4.744533333333334-64.57173333333333-3.1573333333333333-11.716266666666666-7.133866666666666-19.549866666666667-11.921066666666666-23.500799999999998a25.275733333333335 25.275733333333335 0 0 0-16.494933333333332-5.922133333333333zM869.9932444444446 712.5816888888888h-51.18293333333334V519.6771555555555c-18.705066666666667 17.4848-40.73813333333333 30.4128-66.1248 38.801066666666664v-46.44693333333333c13.354666666666667-4.3776 27.869866666666667-12.663466666666666 43.53706666666667-24.866133333333334s26.4192-26.4448 32.238933333333335-42.70933333333333h41.531733333333335v268.12586666666664z" p-id="9294"></path><path d="M893.8439111111112 198.03875555555558H135.9388444444445v624.8021333333332H352.7111111111111v-46.950399999999995H183.9047111111111V244.99768888888892h661.9818666666666v103.80799999999999h47.95733333333333z" p-id="9295"></path></svg>