<?xml version="1.0" standalone="no"?><!DOCTYPE svg PUBLIC "-//W3C//DTD SVG 1.1//EN" "http://www.w3.org/Graphics/SVG/1.1/DTD/svg11.dtd"><svg t="1530586696840" class="icon" style="" viewBox="0 0 1024 1024" version="1.1" xmlns="http://www.w3.org/2000/svg" p-id="5128" xmlns:xlink="http://www.w3.org/1999/xlink" width="128" height="128"><defs><style type="text/css"></style></defs><path d="M512.697383 63.444984c-247.538793 0-448.208115 200.669322-448.208115 448.208115 0 247.539816 200.669322 448.208115 448.208115 448.208115 247.539816 0 448.208115-200.668299 448.208115-448.208115C960.905498 264.114307 760.237199 63.444984 512.697383 63.444984zM690.686147 645.207861c12.265348 12.273535 12.265348 32.1707 0 44.426839-12.282744 12.273535-32.1707 12.273535-44.453445 0l-133.316332-133.316332-133.326565 133.316332c-12.273535 12.273535-32.161491 12.273535-44.445258 0-12.265348-12.256138-12.265348-32.153304 0-44.426839l133.334751-133.353171L335.144548 378.537336c-12.265348-12.256138-12.265348-32.1707 0-44.444235 12.282744-12.256138 32.1707-12.256138 44.445258 0l133.326565 133.334751 133.316332-133.334751c12.282744-12.256138 32.1707-12.256138 44.453445 0 12.265348 12.273535 12.265348 32.18912 0 44.444235L557.351396 511.854691 690.686147 645.207861z" p-id="5129"></path></svg>