<?xml version="1.0" standalone="no"?><!DOCTYPE svg PUBLIC "-//W3C//DTD SVG 1.1//EN" "http://www.w3.org/Graphics/SVG/1.1/DTD/svg11.dtd"><svg t="1530586361317" class="icon" style="" viewBox="0 0 1024 1024" version="1.1" xmlns="http://www.w3.org/2000/svg" p-id="3766" xmlns:xlink="http://www.w3.org/1999/xlink" width="128" height="128"><defs><style type="text/css"></style></defs><path d="M848 232v672H288V232h560m0-56H288c-30.9 0-56 25.1-56 56v672c0 30.9 25.1 56 56 56h560c30.9 0 56-25.1 56-56V232c0-30.9-25.1-56-56-56z" p-id="3767"></path><path d="M736 120v56H288l-56 56v560h-56V120h560m0-56H176c-30.9 0-56 25.1-56 56v672c0 30.9 25.1 56 56 56h112V232h504V120c0-30.9-25.1-56-56-56z" p-id="3768"></path><path d="M708.9 428h-280c-15.5 0-28-12.5-28-28s12.5-28 28-28h280c15.5 0 28 12.5 28 28s-12.6 28-28 28zM708.9 596h-280c-15.5 0-28-12.5-28-28s12.5-28 28-28h280c15.5 0 28 12.5 28 28s-12.6 28-28 28zM708.9 764h-280c-15.5 0-28-12.5-28-28s12.5-28 28-28h280c15.5 0 28 12.5 28 28s-12.6 28-28 28z" p-id="3769"></path></svg>