<?xml version="1.0" encoding="UTF-8"?>
<svg width="18px" height="18px" viewBox="0 0 18 18" version="1.1" xmlns="http://www.w3.org/2000/svg" xmlns:xlink="http://www.w3.org/1999/xlink">
    <!-- Generator: Sketch 49.1 (51147) - http://www.bohemiancoding.com/sketch -->
    <title>navi_right_arrow</title>
    <desc>Created with Sketch.</desc>
    <defs></defs>
    <g id="Symbols" stroke="none" stroke-width="1" fill="none" fill-rule="evenodd">
        <g id="侧边导航-Navigation-树形菜单" transform="translate(-91.000000, -5.000000)" fill="#879098">
            <g id="Group" transform="translate(91.000000, 5.000000)">
                <path d="M4.37487359,9.467767 L6.18198052,11.2748739 C6.37724266,11.4701361 6.37724266,11.7867186 6.18198052,11.9819807 C5.98671837,12.1772429 5.67013588,12.1772429 5.47487373,11.9819807 L3.35355339,9.86066036 C3.24590887,9.75301584 3.19760684,9.60850061 3.20864731,9.467767 C3.19760684,9.32703339 3.24590887,9.18251816 3.35355339,9.07487364 L5.47487373,6.9535533 C5.67013588,6.75829115 5.98671837,6.75829115 6.18198052,6.9535533 C6.37724266,7.14881544 6.37724266,7.46539793 6.18198052,7.66066008 L4.37487359,9.467767 Z M3.5,4 L14.5,4 C14.7761424,4 15,4.22385763 15,4.5 C15,4.77614237 14.7761424,5 14.5,5 L3.5,5 C3.22385763,5 3,4.77614237 3,4.5 C3,4.22385763 3.22385763,4 3.5,4 Z M7.5,9 L14.5,9 C14.7761424,9 15,9.22385763 15,9.5 C15,9.77614237 14.7761424,10 14.5,10 L7.5,10 C7.22385763,10 7,9.77614237 7,9.5 C7,9.22385763 7.22385763,9 7.5,9 Z M3.5,14 L14.5,14 C14.7761424,14 15,14.2238576 15,14.5 C15,14.7761424 14.7761424,15 14.5,15 L3.5,15 C3.22385763,15 3,14.7761424 3,14.5 C3,14.2238576 3.22385763,14 3.5,14 Z" id="Combined-Shape" transform="translate(9.000000, 9.500000) scale(-1, 1) translate(-9.000000, -9.500000) "></path>
            </g>
        </g>
    </g>
</svg>