<?xml version="1.0" standalone="no"?><!DOCTYPE svg PUBLIC "-//W3C//DTD SVG 1.1//EN" "http://www.w3.org/Graphics/SVG/1.1/DTD/svg11.dtd"><svg t="1530519779762" class="icon" style="" viewBox="0 0 1024 1024" version="1.1" xmlns="http://www.w3.org/2000/svg" p-id="5115" xmlns:xlink="http://www.w3.org/1999/xlink" width="128" height="128"><defs><style type="text/css"></style></defs><path d="M512 32c-265.094 0-479.98 214.895-479.98 480s214.885 480 479.98 480 479.98-214.895 479.98-480-214.885-480-479.98-480zM776.268 661.6c-12.397 11.571-33.679-1.033-54.135-29.341-8.885 23.968-20.455 46.077-33.885 65.915 28.927 10.331 47.524 26.449 47.524 44.633 0 31.407-55.582 56.823-124.179 56.823-40.704 0-76.657-8.885-99.383-22.729-22.522 13.844-58.681 22.729-99.383 22.729-68.599 0-124.179-25.415-124.179-56.823 0-17.977 18.596-34.299 47.524-44.633-13.637-19.837-25.001-41.946-33.885-65.915-20.455 28.102-41.737 40.913-54.135 29.341-16.943-15.91-10.538-72.114 14.669-125.423 5.785-12.191 11.984-23.142 18.389-32.647 3.513-154.972 105.583-279.363 230.795-279.363h0.413c125.212 0 227.283 124.183 230.795 279.363 6.406 9.505 12.604 20.457 18.389 32.647 25.003 53.31 31.615 109.513 14.672 125.423z" p-id="5116"></path></svg>