<?xml version="1.0" encoding="UTF-8"?>
<svg width="80px" height="80px" viewBox="0 0 80 80" version="1.1" xmlns="http://www.w3.org/2000/svg" xmlns:xlink="http://www.w3.org/1999/xlink">
    <!-- Generator: Sketch 49.1 (51147) - http://www.bohemiancoding.com/sketch -->
    <title>result_success_icon</title>
    <desc>Created with Sketch.</desc>
    <defs></defs>
    <g id="web规范" stroke="none" stroke-width="1" fill="none" fill-rule="evenodd">
        <g id="操作成功" transform="translate(-700.000000, -234.000000)" fill="#5BB531">
            <g id="成功icon" transform="translate(700.000000, 234.000000)">
                <path d="M34.3431458,51.1421356 L24.4436508,41.2426407 C23.6626022,40.4615921 22.3962723,40.4615921 21.6152237,41.2426407 C20.8341751,42.0236893 20.8341751,43.2900192 21.6152237,44.0710678 L32.9289322,55.3847763 C33.3194565,55.7753006 33.8313011,55.9705627 34.3431458,55.9705627 C34.8549904,55.9705627 35.366835,55.7753006 35.7573593,55.3847763 L58.3847763,32.7573593 C59.1658249,31.9763107 59.1658249,30.7099808 58.3847763,29.9289322 C57.6037277,29.1478836 56.3373978,29.1478836 55.5563492,29.9289322 L34.3431458,51.1421356 Z M40,76 C20.6700338,76 5,60.3299662 5,41 C5,21.6700338 20.6700338,6 40,6 C59.3299662,6 75,21.6700338 75,41 C75,60.3299662 59.3299662,76 40,76 Z" id="Combined-Shape"></path>
            </g>
        </g>
    </g>
</svg>