<?xml version="1.0" encoding="UTF-8"?>
<svg width="80px" height="80px" viewBox="0 0 80 80" version="1.1" xmlns="http://www.w3.org/2000/svg" xmlns:xlink="http://www.w3.org/1999/xlink">
    <!-- Generator: Sketch 49.1 (51147) - http://www.bohemiancoding.com/sketch -->
    <title>result_fail_icon</title>
    <desc>Created with Sketch.</desc>
    <defs></defs>
    <g id="web规范" stroke="none" stroke-width="1" fill="none" fill-rule="evenodd">
        <g id="操作失败" transform="translate(-700.000000, -234.000000)" fill="#FB4853">
            <g id="Group" transform="translate(360.000000, 234.000000)">
                <g id="成功icon" transform="translate(340.000000, 0.000000)">
                    <path d="M40,38.1715729 L30.1005051,28.2720779 C29.3194565,27.4910294 28.0531265,27.4910294 27.2720779,28.2720779 C26.4910294,29.0531265 26.4910294,30.3194565 27.2720779,31.1005051 L37.1715729,41 L27.2720779,50.8994949 C26.4910294,51.6805435 26.4910294,52.9468735 27.2720779,53.7279221 C28.0531265,54.5089706 29.3194565,54.5089706 30.1005051,53.7279221 L40,43.8284271 L49.8994949,53.7279221 C50.6805435,54.5089706 51.9468735,54.5089706 52.7279221,53.7279221 C53.5089706,52.9468735 53.5089706,51.6805435 52.7279221,50.8994949 L42.8284271,41 L52.7279221,31.1005051 C53.5089706,30.3194565 53.5089706,29.0531265 52.7279221,28.2720779 C51.9468735,27.4910294 50.6805435,27.4910294 49.8994949,28.2720779 L40,38.1715729 Z M40,76 C20.6700338,76 5,60.3299662 5,41 C5,21.6700338 20.6700338,6 40,6 C59.3299662,6 75,21.6700338 75,41 C75,60.3299662 59.3299662,76 40,76 Z" id="Combined-Shape"></path>
                </g>
            </g>
        </g>
    </g>
</svg>