<?xml version="1.0" standalone="no"?><!DOCTYPE svg PUBLIC "-//W3C//DTD SVG 1.1//EN" "http://www.w3.org/Graphics/SVG/1.1/DTD/svg11.dtd"><svg t="1524573331097" class="icon" style="" viewBox="0 0 1024 1024" version="1.1" xmlns="http://www.w3.org/2000/svg" p-id="12363" xmlns:xlink="http://www.w3.org/1999/xlink" width="128" height="128"><defs><style type="text/css"></style></defs><path d="M310.41408 328.03l-27.974-27.974c-39.694-39.694-97.4-53.314-150.686-35.562-77.014 25.662-118.784 109.206-93.124 186.248 10.516 31.548 2.46 65.764-21.062 89.286l-8.758 8.76A30.03 30.03 0 0 0 0.81208 576.88a29.962 29.962 0 0 0 19.714 21.56l146.234 48.744c3.164 1.054 6.358 1.552 9.488 1.552 12.568 0 24.258-7.94 28.444-20.506l105.72-257.782c11.718-11.72 11.718-30.702 0.002-42.418z" fill="#FEA832" p-id="12364"></path><path d="M813.92608 0.06h-59.994c-106.79 0-196.978 79.792-210.174 182.376-10.802 2.402-21.6 6.002-31.798 10.798-52.794 22.798-91.99 75.592-91.99 136.786 0 16.796 13.196 29.996 29.996 29.996h183.978c49.796 0 89.99-40.198 89.99-89.99v-59.994c0-16.8 13.196-29.996 29.996-29.996h59.994c49.796 0 89.99-40.194 89.99-89.99S863.72208 0.06 813.92608 0.06z" fill="#FE9923" p-id="12365"></path><path d="M969.90608 417.012c-34.192 24.596-76.79 31.194-116.984 17.396l-3.002-0.6 63.592 481.546c-41.396 10.196-83.988 19.198-128.984 25.798l-105.588-267.37c-42.598 22.198-90.788 35.398-136.984 39.598-9.596 0.596-19.8 1.198-29.996 1.198s-20.4-0.6-29.996-1.198c-46.196-4.2-94.388-17.4-136.984-39.598l-105.588 267.37c-44.394-6.6-86.99-14.998-127.786-25.196l49.796-430.552c11.398-97.188 93.59-179.38 198.578-184.178l59.994 148.784 243.972-119.986v-119.986c0-49.796 40.194-89.99 89.99-89.99h119.986c7.8 0 15.598 3 20.996 9l91.192 90.586c55.188 55.792 50.392 149.38-16.204 197.378z" fill="#FD003A" p-id="12366"></path><path d="M969.90608 417.012c-34.192 24.596-76.79 31.194-116.984 17.396l-3.002-0.6 63.592 481.546c-41.396 10.196-83.988 19.198-128.984 25.798l-105.588-267.37c-42.598 22.198-90.788 35.398-136.984 39.598-9.596 0.596-19.8 1.198-29.996 1.198V405.012l151.982-74.992v-119.986c0-49.796 40.194-89.99 89.99-89.99h119.986c7.8 0 15.598 3 20.996 9l91.192 90.586c55.192 55.796 50.396 149.384-16.2 197.382z" fill="#E50027" p-id="12367"></path><path d="M813.92208 270.028m-29.996 0a29.996 29.996 0 1 0 59.992 0 29.996 29.996 0 1 0-59.992 0Z" fill="#713708" p-id="12368"></path><path d="M541.95808 510v203.376c-9.596 0.596-19.8 1.198-29.996 1.198s-20.4-0.6-29.996-1.198V510c0-16.8 13.196-29.996 29.996-29.996 16.798 0 29.996 13.196 29.996 29.996z" fill="#CCEFFF" p-id="12369"></path><path d="M541.95808 510v203.376c-9.596 0.596-19.8 1.198-29.996 1.198V480.004c16.798 0 29.996 13.196 29.996 29.996z" fill="#ACE3FC" p-id="12370"></path><path d="M980.70808 962.746c-142.188 40.796-321.164 61.194-468.748 61.194s-326.56-20.4-468.148-61.194c-31.794-9-50.392-42.598-41.396-74.392 9-31.198 41.996-50.396 73.794-40.796 131.384 37.196 299.564 56.394 435.748 56.394s304.362-19.198 435.148-56.394c31.198-9 65.394 8.4 74.396 40.796 8.998 31.794-9.6 65.392-40.794 74.392z" fill="#994C0F" p-id="12371"></path><path d="M980.70808 962.746c-142.188 40.796-321.164 61.194-468.748 61.194v-119.986c136.186 0 304.362-19.198 435.148-56.394 31.198-9 65.394 8.4 74.396 40.796 8.996 31.792-9.602 65.39-40.796 74.39z" fill="#713708" p-id="12372"></path><path d="M663.94408 270.028v179.98c0 49.792-40.194 89.99-89.99 89.99h-123.986c-49.796 0-89.99-40.198-89.99-89.99v-148.784c3.6-0.596 6.6-1.198 10.196-1.198h263.772c16.8-0.002 29.998-13.202 29.998-29.998z" fill="#DCF4FF" p-id="12373"></path><path d="M663.94408 270.028v179.98c0 49.792-40.194 89.99-89.99 89.99h-61.992V300.024h121.986c16.798 0 29.996-13.2 29.996-29.996z" fill="#CCEFFF" p-id="12374"></path><path d="M573.95408 480.004c16.522 0 29.996-13.446 29.996-29.996v-149.982h-183.978v149.982c0 16.55 13.474 29.996 29.996 29.996h123.986z" fill="#32D736" p-id="12375"></path><path d="M573.95408 480.004c16.522 0 29.996-13.446 29.996-29.996v-149.982h-91.99v179.98h61.994z" fill="#10BB67" p-id="12376"></path></svg>