<?xml version="1.0" standalone="no"?><!DOCTYPE svg PUBLIC "-//W3C//DTD SVG 1.1//EN" "http://www.w3.org/Graphics/SVG/1.1/DTD/svg11.dtd"><svg t="1524573362167" class="icon" style="" viewBox="0 0 1024 1024" version="1.1" xmlns="http://www.w3.org/2000/svg" p-id="13019" xmlns:xlink="http://www.w3.org/1999/xlink" width="128" height="128"><defs><style type="text/css"></style></defs><path d="M655.464 240.852h64.976c43.726 0 79.176 35.448 79.176 79.176v16.926l-48.05 48.05-96.102-144.152zM223.008 336.954v-16.926c0-43.726 35.448-79.176 79.176-79.176h64.98l-96.104 144.152-48.052-48.05z" fill="#FA004B" p-id="13020"></path><path d="M31.346 929.4v-45.976h33.438v-50.154H31.346v-48.066h961.308v48.066h-33.438v50.154h33.438V929.4z" fill="#36C9A3" p-id="13021"></path><path d="M0 743.636h1023.854v41.796H0zM0 934.142h1023.854v41.796H0z" fill="#FA004B" p-id="13022"></path><path d="M62.84 737.376L18.906 180.878c-1.41-17.872 20.192-27.834 32.868-15.158L271.06 385.004 495.376 56.008c7.658-11.23 24.216-11.23 31.874 0l224.316 328.996L970.85 165.72c12.676-12.676 34.278-2.714 32.868 15.158l-43.934 556.498" fill="#FAEDD6" p-id="13023"></path><path d="M614.246 402.28c-27.188-27.188-71.268-27.188-98.456 0l-4.476 4.476-4.474-4.476c-27.188-27.188-71.268-27.188-98.456 0s-27.188 71.268 0 98.456l102.932 102.932 102.932-102.932c27.186-27.188 27.186-71.268-0.002-98.456z" fill="#FA004B" p-id="13024"></path><path d="M126.908 385.006m-32.034 0a32.034 32.034 0 1 0 64.068 0 32.034 32.034 0 1 0-64.068 0Z" fill="#36C9A3" p-id="13025"></path><path d="M511.31 224.844m-32.034 0a32.034 32.034 0 1 0 64.068 0 32.034 32.034 0 1 0-64.068 0Z" fill="#36C9A3" p-id="13026"></path><path d="M895.728 385.006m-32.034 0a32.034 32.034 0 1 0 64.068 0 32.034 32.034 0 1 0-64.068 0Z" fill="#36C9A3" p-id="13027"></path><path d="M62.84 689.322h896.94v48.05H62.84zM112.848 833.268h31.346v50.156H112.848zM879.804 833.268h31.346v50.156h-31.346z" fill="#FFFFFF" p-id="13028"></path><path d="M1009.372 849.988v-48.066H1024v-31.346H0v31.346h14.628v48.066h33.436v16.718H14.628v45.976H0v31.346h1024v-31.346h-14.628v-45.976h-33.436v-16.718h33.436z m-31.348 48.066v14.628H45.976v-14.628h33.436V818.64H45.976v-16.718h932.048v16.718h-33.436v79.412h33.436z" fill="#232323" p-id="13029"></path><path d="M493.192 833.268h31.346v50.156h-31.346zM303.02 833.268h31.346v50.156H303.02zM687.542 833.268h31.346v50.156h-31.346z" fill="#FFFFFF" p-id="13030"></path><path d="M0 960.744h1024v31.346H0zM126.91 432.712c-26.306 0-47.708-21.4-47.708-47.706 0-26.306 21.402-47.71 47.708-47.71s47.706 21.402 47.706 47.708c-0.002 26.306-21.402 47.708-47.706 47.708z m0-64.068c-9.022 0-16.362 7.34-16.362 16.362 0 9.02 7.34 16.358 16.362 16.358 9.02 0 16.358-7.34 16.358-16.358 0-9.024-7.34-16.362-16.358-16.362zM511.312 272.544c-26.306 0-47.706-21.402-47.706-47.708s21.4-47.708 47.706-47.708 47.708 21.402 47.708 47.708-21.402 47.708-47.708 47.708z m0-64.07c-9.02 0-16.358 7.34-16.358 16.362s7.34 16.362 16.358 16.362c9.022 0 16.362-7.34 16.362-16.362s-7.34-16.362-16.362-16.362zM895.718 432.712c-26.306 0-47.708-21.4-47.708-47.706 0-26.306 21.402-47.708 47.708-47.708 26.306 0 47.706 21.402 47.706 47.708 0 26.306-21.4 47.706-47.706 47.706z m0-64.068c-9.022 0-16.362 7.34-16.362 16.362 0 9.02 7.34 16.358 16.362 16.358 9.02 0 16.358-7.34 16.358-16.358 0-9.024-7.336-16.362-16.358-16.362zM511.312 625.834l-114.016-114.016c-16.11-16.11-24.982-37.528-24.982-60.312 0-22.78 8.874-44.2 24.982-60.31 16.11-16.11 37.528-24.982 60.31-24.982 19.794 0 38.556 6.696 53.704 19.02 15.144-12.322 33.912-19.02 53.704-19.02 22.784 0 44.202 8.872 60.312 24.984v-0.002c33.254 33.254 33.254 87.368 0 120.624l-114.014 114.014z m-53.704-228.272c-14.41 0-27.956 5.612-38.142 15.8-10.19 10.19-15.804 23.736-15.804 38.148 0 14.41 5.614 27.956 15.8 38.142l91.848 91.85 91.848-91.85c21.034-21.032 21.034-55.254 0-76.288v-0.002c-10.188-10.19-23.734-15.8-38.146-15.8-14.412 0-27.958 5.612-38.146 15.8l-15.558 15.552-15.554-15.548c-10.188-10.194-23.736-15.804-38.146-15.804z" fill="#232323" p-id="13031"></path><path d="M976.846 720.42l42.498-538.312c1.166-14.758-6.768-28.3-20.212-34.498-13.436-6.196-28.892-3.442-39.366 7.024l-146.392 146.392c-8.824-43.228-47.14-75.85-92.936-75.85H661.56l-121.362-178a34.934 34.934 0 0 0-28.886-15.268 34.93 34.93 0 0 0-28.888 15.268l-121.364 178h-58.876c-45.794 0-84.11 32.624-92.934 75.852L62.856 154.636c-10.47-10.468-25.922-13.222-39.364-7.024-13.44 6.198-21.376 19.74-20.212 34.498l42.5 538.312H0v31.346h1024v-31.346h-47.154v-0.002zM720.44 256.526c35.014 0 63.502 28.488 63.502 63.502v10.434l-30.084 30.084-70.924-104.02h37.506z m-481.756 63.502c0-35.014 28.486-63.502 63.5-63.502h37.506l-70.924 104.02-30.082-30.082v-10.436zM76.068 705.792h9.614v-31.346h-12.088l-7.59-96.13h51.024v-31.346H63.53l-29-367.324c-0.132-1.668 0.57-2.868 2.09-3.568 1.524-0.704 2.89-0.458 4.07 0.728l232.662 232.662L508.324 64.836a3.484 3.484 0 0 1 2.99-1.578c0.872 0 2.098 0.274 2.988 1.578l234.97 344.628 232.66-232.662c1.182-1.182 2.552-1.432 4.072-0.728 1.52 0.7 2.222 1.9 2.09 3.568l-29 367.326h-47.944v31.346h45.47l-7.59 96.13h-21.162v31.346h18.686l-1.156 14.628H77.224l-1.156-14.626z" fill="#232323" p-id="13032"></path><path d="M468.114 674.442h31.346v31.346h-31.346zM422.138 674.442h31.346v31.346h-31.346zM376.164 674.442h31.346v31.346h-31.346zM284.212 674.442h31.346v31.346h-31.346zM192.262 674.442h31.346v31.346H192.262zM238.236 674.442h31.346v31.346h-31.346zM100.31 674.442h31.346v31.346H100.31zM146.286 674.442h31.346v31.346H146.286zM330.188 674.442h31.346v31.346h-31.346zM743.968 674.442h31.346v31.346h-31.346zM789.942 674.442h31.346v31.346h-31.346zM835.918 674.442h31.346v31.346h-31.346zM881.894 674.442h31.346v31.346h-31.346zM697.992 674.442h31.346v31.346h-31.346zM606.04 674.442h31.346v31.346H606.04zM560.066 674.442h31.346v31.346h-31.346zM514.09 674.442h31.346v31.346h-31.346zM652.016 674.442h31.346v31.346h-31.346z" fill="#232323" p-id="13033"></path></svg>