<?xml version="1.0" standalone="no"?><!DOCTYPE svg PUBLIC "-//W3C//DTD SVG 1.1//EN" "http://www.w3.org/Graphics/SVG/1.1/DTD/svg11.dtd"><svg t="1524573312227" class="icon" style="" viewBox="0 0 1024 1024" version="1.1" xmlns="http://www.w3.org/2000/svg" p-id="12177" xmlns:xlink="http://www.w3.org/1999/xlink" width="128" height="128"><defs><style type="text/css"></style></defs><path d="M532.9 532m-383.6 0a383.6 383.6 0 1 0 767.2 0 383.6 383.6 0 1 0-767.2 0Z" fill="#FEEACD" p-id="12178"></path><path d="M805.2 802.3c-69.5 70-165.8 113.4-272.3 113.4-105.9 0-201.9-42.9-271.3-112.4l543.6-1z" fill="#F1F2F2" p-id="12179"></path><path d="M532.9 920.7c-214.7 0-389.4-174.7-389.4-389.4S318.2 142 532.9 142s389.4 174.7 389.4 389.4-174.7 389.3-389.4 389.3z m0-767.3C324.5 153.4 155 322.9 155 531.3s169.5 377.9 377.9 377.9 377.9-169.5 377.9-377.9-169.5-377.9-377.9-377.9z" fill="#414042" p-id="12180"></path><path d="M267.4 800.7h534.7v11.4H267.4z" fill="#414042" p-id="12181"></path><path d="M518 532h30.1v109.4H518z" fill="#58595B" p-id="12182"></path><path d="M553.8 647.1h-41.5V526.3h41.5v120.8z m-30.1-11.4h18.7v-97.9h-18.7v97.9z" fill="#414042" p-id="12183"></path><path d="M709.6 333.8s-79 101.7-176.5 101.7-176.5-101.7-176.5-101.7 79-101.7 176.5-101.7 176.5 101.7 176.5 101.7z" fill="#FFFFFF" p-id="12184"></path><path d="M533.1 441.2c-41.2 0-85.5-18-128.4-52.1-32.1-25.6-51.8-50.8-52.7-51.8l-2.7-3.5 2.7-3.5c0.8-1.1 20.5-26.3 52.7-51.8 42.8-34.1 87.2-52.1 128.4-52.1s85.5 18 128.4 52.1c32.1 25.6 51.8 50.8 52.7 51.8l2.7 3.5-2.7 3.5c-0.8 1.1-20.5 26.3-52.7 51.8-42.9 34.1-87.3 52.1-128.4 52.1zM364 333.8c14.9 17.7 85.7 96 169.1 96 83.4 0 154.2-78.3 169.1-96-14.9-17.7-85.7-96-169.1-96-83.5 0-154.2 78.3-169.1 96z" fill="#414042" p-id="12185"></path><path d="M533.1 333.8m-77.3 0a77.3 77.3 0 1 0 154.6 0 77.3 77.3 0 1 0-154.6 0Z" fill="#19B5FE" p-id="12186"></path><path d="M533.1 333.8m-33 0a33 33 0 1 0 66 0 33 33 0 1 0-66 0Z" fill="#58595B" p-id="12187"></path><path d="M533.1 550c-119.2 0-216.3-97-216.3-216.3 0-119.2 97-216.3 216.3-216.3 119.2 0 216.3 97 216.3 216.3C749.3 453 652.3 550 533.1 550z m0-395.5c-98.8 0-179.3 80.4-179.3 179.3S434.2 513 533.1 513s179.3-80.4 179.3-179.3-80.5-179.2-179.3-179.2z" fill="#F89406" p-id="12188"></path><path d="M533.1 555.7c-122.4 0-222-99.6-222-222s99.6-222 222-222 222 99.6 222 222-99.6 222-222 222z m0-432.5c-116.1 0-210.5 94.5-210.5 210.5 0 116.1 94.5 210.5 210.5 210.5 116.1 0 210.5-94.5 210.5-210.5s-94.4-210.5-210.5-210.5z m0 395.5c-102 0-185-83-185-185s83-185 185-185 185 83 185 185-83 185-185 185z m0-358.5c-95.7 0-173.5 77.9-173.5 173.5 0 95.7 77.9 173.5 173.5 173.5s173.5-77.9 173.5-173.5-77.8-173.5-173.5-173.5zM502.4 561.5h61.3v11.4h-61.3zM502.4 581h61.3v11.4h-61.3z" fill="#414042" p-id="12189"></path><path d="M478.3 609.8h109.2v193.1H478.3z" fill="#19B5FE" p-id="12190"></path><path d="M551.4 609.8h36.1v193.1h-36.1z" fill="#75D3FE" p-id="12191"></path><path d="M593.3 808.5H472.6V604.1h120.7v204.4zM484 797.1h97.8V615.5H484v181.6z" fill="#414042" p-id="12192"></path><path d="M534.7 62.1m-9 0a9 9 0 1 0 18 0 9 9 0 1 0-18 0Z" fill="#F15A29" p-id="12193"></path><path d="M602.585417 80.469614a9 9 0 1 0 4.652977-17.388209 9 9 0 1 0-4.652977 17.388209Z" fill="#F15A29" p-id="12194"></path><path d="M665.672378 107.029237a9 9 0 1 0 8.99102-15.593638 9 9 0 1 0-8.99102 15.593638Z" fill="#F15A29" p-id="12195"></path><path d="M719.851709 148.999428a9 9 0 1 0 12.716143-12.739691 9 9 0 1 0-12.716143 12.739691Z" fill="#F15A29" p-id="12196"></path><path d="M761.230939 203.649046a9 9 0 1 0 15.577765-9.018495 9 9 0 1 0-15.577765 9.018495Z" fill="#F15A29" p-id="12197"></path><path d="M787.097585 266.947047a9 9 0 1 0 17.379489-4.685441 9 9 0 1 0-17.379489 4.685441Z" fill="#F15A29" p-id="12198"></path><path d="M795.189 336.373a9 9 0 1 0 18 0 9 9 0 1 0-18 0Z" fill="#F15A29" p-id="12199"></path><path d="M792.903705 413.817521a9 9 0 1 0 4.622318-17.396384 9 9 0 1 0-4.622318 17.396384Z" fill="#F15A29" p-id="12200"></path><path d="M763.444894 478.30614a9 9 0 1 0 8.962428-15.610089 9 9 0 1 0-8.962428 15.610089Z" fill="#F15A29" p-id="12201"></path><path d="M718.231412 532.90672a9 9 0 1 0 12.693666-12.762086 9 9 0 1 0-12.693666 12.762086Z" fill="#F15A29" p-id="12202"></path><path d="M660.423634 574.037085a9 9 0 1 0 15.561054-9.047299 9 9 0 1 0-15.561054 9.047299Z" fill="#F15A29" p-id="12203"></path><path d="M594.037999 598.724196a9 9 0 1 0 17.370791-4.717586 9 9 0 1 0-17.370791 4.717586Z" fill="#F15A29" p-id="12204"></path><path d="M459.962048 604.838579a9 9 0 1 0 4.590126-17.404906 9 9 0 1 0-4.590126 17.404906Z" fill="#F15A29" p-id="12205"></path><path d="M392.343163 576.624121a9 9 0 1 0 8.932988-15.626955 9 9 0 1 0-8.932988 15.626955Z" fill="#F15A29" p-id="12206"></path><path d="M334.351915 532.035582a9 9 0 1 0 12.670257-12.785327 9 9 0 1 0-12.670257 12.785327Z" fill="#F15A29" p-id="12207"></path><path d="M289.815089 473.871319a9 9 0 1 0 15.544764-9.075258 9 9 0 1 0-15.544764 9.075258Z" fill="#F15A29" p-id="12208"></path><path d="M261.922848 406.293061a9 9 0 1 0 17.362779-4.746988 9 9 0 1 0-17.362779 4.746988Z" fill="#F15A29" p-id="12209"></path><path d="MNaN NaNaNaN NaN NaN 1 0 NaN NaN NaN NaN NaN 1 0 NaN NaNZ" fill="#F15A29" p-id="12210"></path><path d="M268.398518 272.09335a9 9 0 1 0 4.557614-17.413448 9 9 0 1 0-4.557614 17.413448Z" fill="#F15A29" p-id="12211"></path><path d="M293.379442 205.780013a9 9 0 1 0 8.904335-15.643299 9 9 0 1 0-8.904335 15.643299Z" fill="#F15A29" p-id="12212"></path><path d="M334.553848 148.133831a9 9 0 1 0 12.646806-12.808525 9 9 0 1 0-12.646806 12.808525Z" fill="#F15A29" p-id="12213"></path><path d="M389.335353 103.145051a9 9 0 1 0 15.527471-9.104814 9 9 0 1 0-15.527471 9.104814Z" fill="#F15A29" p-id="12214"></path><path d="M453.823143 73.794174a9 9 0 1 0 17.353801-4.779707 9 9 0 1 0-17.353801 4.779707Z" fill="#F15A29" p-id="12215"></path><path d="M535.1 414.8c-44.6 0-80.8-36.3-80.8-80.8 0-44.6 36.3-80.8 80.8-80.8s80.8 36.3 80.8 80.8c0 44.6-36.2 80.8-80.8 80.8z m0-150.2c-38.3 0-69.4 31.1-69.4 69.4s31.1 69.4 69.4 69.4c38.3 0 69.4-31.1 69.4-69.4s-31.1-69.4-69.4-69.4z" fill="#F15A29" p-id="12216"></path><path d="M493.9 431.4c-12.6-5.3-23.9-12.9-33.6-22.7-9.7-9.7-17.3-21-22.7-33.6l10.5-4.4c4.7 11.2 11.5 21.3 20.2 30s18.7 15.5 30 20.2l-4.4 10.5zM622 297.3c-4.8-11.2-11.6-21.3-20.2-30-8.7-8.7-18.7-15.5-30-20.2l4.4-10.5c12.6 5.3 23.9 12.9 33.6 22.7 9.7 9.7 17.3 21 22.7 33.6l-10.5 4.4zM394.9 330.8H672v5.7H394.9z" fill="#F15A29" p-id="12217"></path><path d="M530.7 195.1h5.7v277.1h-5.7z" fill="#F15A29" p-id="12218"></path><path d="M535.1 333.6m-19.8 0a19.8 19.8 0 1 0 39.6 0 19.8 19.8 0 1 0-39.6 0Z" fill="#F15A29" p-id="12219"></path><path d="M673.5 684.2h118.1v11.4H673.5zM803 684.2h17.2v11.4H803zM837.2 684.2h17.2v11.4h-17.2z" fill="#414042" p-id="12220"></path><path d="M257.7 737.1h118.1v11.4H257.7zM387.2 737.1h17.2v11.4h-17.2zM421.4 737.1h17.2v11.4h-17.2z" fill="#414042" p-id="12221"></path><path d="M669.5 620.2h17.2v11.4h-17.2zM635.2 620.2h17.2v11.4h-17.2z" fill="#414042" p-id="12222"></path><path d="M669.5 620.2h17.2v11.4h-17.2zM635.2 620.2h17.2v11.4h-17.2z" fill="#414042" p-id="12223"></path><path d="M255 534.1h17.2v11.4H255zM220.8 534.1H238v11.4h-17.2z" fill="#414042" p-id="12224"></path><path d="M731.4 653.1l-23.6-13.6v-27.2l23.6-13.6 23.6 13.6v27.2l-23.6 13.6z m-12.2-20.2l12.2 7 12.2-7v-14.1l-12.2-7-12.2 7v14.1z" fill="#414042" p-id="12225"></path><path d="M261.6 682.1L238 668.5v-27.2l23.6-13.6 23.6 13.6v27.2l-23.6 13.6z m-12.1-20.2l12.2 7 12.2-7v-14.1l-12.2-7-12.2 7v14.1z" fill="#414042" p-id="12226"></path><path d="M309 649.1h133.9v11.4H309z" fill="#414042" p-id="12227"></path><path d="M839.7 514h133.9v11.4H839.7z" fill="#414042" p-id="12228"></path><path d="M11.8 534.1h191.9v11.4H11.8z" fill="#414042" p-id="12229"></path></svg>